<?xml version="1.0" standalone="no"?>
<!DOCTYPE svg PUBLIC "-//W3C//DTD SVG 20010904//EN"
 "http://www.w3.org/TR/2001/REC-SVG-20010904/DTD/svg10.dtd">
<svg version="1.0" xmlns="http://www.w3.org/2000/svg"
 width="1280px" height="64px" viewBox="0 0 300.000000 20.000000"
 preserveAspectRatio="xMidYMid meet">
<metadata>
Created by potrace 1.10, written by Peter Selinger 2001-2011
</metadata>
<g transform="translate(0.000000,20.000000) scale(0.100000,-0.100000)"
fill="#000000" stroke="none">
<path d="M2850 125 l0 -75 75 0 c68 0 75 2 75 20 0 17 -7 20 -45 20 -52 0 -69
21 -63 76 4 30 1 34 -19 34 -22 0 -23 -3 -23 -75z"/>
<path d="M46 145 c-20 -30 -20 -35 -2 -35 7 0 17 10 20 23 7 21 8 21 15 3 7
-18 41 -32 41 -17 0 9 -43 51 -52 51 -3 0 -13 -11 -22 -25z"/>
<path d="M203 155 c-3 -9 -3 -19 1 -22 3 -4 6 -1 6 5 0 7 5 12 10 12 6 0 10
-13 10 -29 0 -16 6 -31 15 -35 18 -7 20 22 3 59 -13 28 -36 33 -45 10z"/>
<path d="M370 120 c0 -55 10 -64 28 -25 9 19 9 31 0 50 -18 39 -28 30 -28 -25z"/>
<path d="M506 130 c-20 -51 -21 -48 10 -44 31 3 29 2 38 36 5 21 2 30 -13 37
-16 9 -21 5 -35 -29z"/>
<path d="M812 158 c-13 -13 -17 -67 -4 -69 57 -10 60 -7 38 46 -17 39 -17 40
-34 23z"/>
<path d="M958 145 c-9 -20 -8 -31 2 -51 13 -23 15 -24 21 -7 11 28 10 83 -1
83 -6 0 -16 -11 -22 -25z"/>
<path d="M1104 134 c-8 -20 -13 -41 -12 -46 6 -17 38 21 38 44 0 17 2 18 15 8
18 -15 20 1 3 18 -19 19 -28 14 -44 -24z"/>
<path d="M1417 164 c-5 -5 3 -39 19 -78 7 -18 8 -18 15 2 12 32 -16 94 -34 76z"/>
<path d="M1564 124 c-8 -54 -4 -60 25 -37 17 14 21 25 16 45 -12 46 -33 42
-41 -8z"/>
<path d="M657 142 c-21 -23 -21 -27 -2 -45 17 -18 51 -12 60 10 5 15 -20 53
-35 53 -4 0 -14 -8 -23 -18z"/>
<path d="M1250 145 c-10 -12 -10 -19 -2 -27 8 -8 13 -7 18 5 7 20 24 22 24 3
0 -7 7 -19 15 -26 21 -17 20 8 -1 38 -18 26 -36 28 -54 7z"/>
<path d="M1706 129 c-15 -26 -16 -33 -5 -40 22 -14 37 -10 53 13 14 20 14 24
-1 40 -22 24 -26 23 -47 -13z"/>
<path d="M1860 141 c-16 -31 -12 -47 17 -66 24 -16 26 -16 20 0 -4 9 -7 32 -7
51 0 38 -14 44 -30 15z"/>
<path d="M2016 144 c-3 -9 -6 -30 -6 -47 1 -27 2 -29 11 -14 21 36 29 77 14
77 -7 0 -16 -7 -19 -16z"/>
<path d="M2146 138 c-21 -30 -22 -55 -1 -38 8 7 15 19 15 26 0 22 18 16 26 -8
6 -19 7 -20 16 -4 7 13 5 21 -9 31 -25 19 -29 19 -47 -7z"/>
<path d="M2305 146 c-11 -8 -16 -18 -11 -23 5 -4 11 -2 13 5 7 20 21 14 25
-10 2 -13 11 -24 21 -26 23 -5 21 12 -5 43 -21 24 -25 25 -43 11z"/>
<path d="M2461 115 c-2 -44 -1 -46 19 -35 16 9 20 19 18 43 -2 19 -9 33 -19
35 -12 2 -16 -8 -18 -43z"/>
</g>
</svg>
