<svg id="svg" xmlns="http://www.w3.org/2000/svg" xmlns:xlink="http://www.w3.org/1999/xlink" width="1280" height="80" viewBox="0, 0, 400,26.25"><g id="svgg"><path id="path0" d="M380.625 9.844 L 380.625 19.688 390.313 19.688 L 400.000 19.688 400.000 9.844 L 400.000 0.000 390.313 0.000 L 380.625 0.000 380.625 9.844 M49.419 4.331 C 48.770 4.830,48.730 4.977,49.089 5.551 C 49.411 6.067,49.418 6.376,49.123 7.023 C 48.467 8.463,48.638 12.927,49.375 13.594 C 49.719 13.905,50.002 14.454,50.004 14.814 C 50.019 17.044,50.670 17.375,51.570 15.610 C 51.925 14.914,52.426 14.264,52.682 14.166 C 54.111 13.617,54.581 10.139,53.541 7.807 C 51.855 4.025,50.883 3.205,49.419 4.331 M128.010 6.581 C 126.107 10.304,126.168 12.863,128.190 14.188 C 128.598 14.455,129.111 15.169,129.330 15.774 C 129.874 17.280,130.519 17.180,130.794 15.547 C 130.917 14.816,131.270 13.897,131.578 13.504 C 132.179 12.739,132.239 9.676,131.717 6.438 C 131.536 5.314,131.566 4.965,131.829 5.128 C 132.555 5.576,132.161 4.742,131.417 4.255 C 129.944 3.289,129.558 3.553,128.010 6.581 M27.891 5.578 C 26.255 7.085,25.479 9.113,26.719 8.637 C 27.040 8.514,27.188 8.656,27.188 9.091 C 27.188 9.439,27.315 9.646,27.471 9.549 C 27.627 9.453,27.681 9.654,27.592 9.996 C 27.502 10.338,27.304 10.541,27.152 10.447 C 27.000 10.353,26.875 10.425,26.875 10.607 C 26.875 11.369,28.412 10.921,28.956 10.000 C 29.645 8.833,29.998 8.807,30.007 9.922 C 30.011 10.395,30.285 11.379,30.617 12.109 L 31.219 13.438 29.907 13.474 C 28.607 13.510,28.611 13.514,30.313 13.802 C 31.258 13.962,32.354 14.034,32.747 13.962 C 33.289 13.863,33.577 14.050,33.927 14.728 C 34.182 15.221,34.528 15.625,34.696 15.625 C 35.075 15.625,35.101 12.109,34.725 11.703 C 34.574 11.540,34.274 10.844,34.057 10.156 C 33.500 8.386,31.968 5.406,31.241 4.678 C 30.314 3.752,29.691 3.919,27.891 5.578 M6.788 6.559 C 4.666 8.752,4.330 9.293,3.921 11.172 C 3.626 12.530,4.096 12.457,4.931 11.016 L 5.611 9.844 5.618 10.811 C 5.622 11.343,5.882 12.011,6.196 12.295 C 6.883 12.917,7.188 12.952,7.188 12.410 C 7.188 12.188,7.469 11.455,7.813 10.781 C 8.156 10.107,8.439 9.269,8.442 8.918 C 8.452 7.453,8.804 6.875,9.687 6.875 C 10.575 6.875,10.924 7.452,10.933 8.941 C 10.936 9.304,11.297 10.130,11.737 10.778 C 12.176 11.426,12.466 12.137,12.381 12.358 C 12.296 12.580,12.436 12.841,12.692 12.939 C 12.948 13.038,13.081 12.995,12.988 12.844 C 12.895 12.694,13.029 12.397,13.285 12.185 C 13.541 11.972,13.753 11.359,13.757 10.821 L 13.764 9.844 14.444 11.016 C 15.078 12.109,15.625 12.531,15.625 11.925 C 15.625 10.433,14.538 8.499,12.600 6.540 C 9.820 3.731,9.523 3.732,6.788 6.559 M69.125 4.750 C 68.919 4.956,68.750 5.347,68.750 5.618 C 68.750 5.889,68.545 6.404,68.294 6.762 C 66.072 9.934,64.797 17.869,66.948 15.134 C 67.398 14.563,67.677 14.427,67.915 14.665 C 68.472 15.222,71.000 15.055,72.094 14.388 C 73.453 13.559,73.941 12.459,74.184 9.675 L 74.389 7.319 72.684 5.847 C 70.970 4.367,69.852 4.023,69.125 4.750 M107.840 5.964 L 105.938 7.554 106.133 9.792 C 106.506 14.089,109.325 16.532,112.159 15.015 C 112.756 14.696,112.930 14.753,113.477 15.449 C 115.547 18.080,114.173 10.150,112.028 7.088 C 111.772 6.723,111.563 6.181,111.563 5.886 C 111.563 5.396,110.478 4.375,109.958 4.375 C 109.839 4.375,108.886 5.090,107.840 5.964 M149.384 4.991 C 148.657 5.718,147.125 8.698,146.568 10.469 C 146.351 11.156,146.051 11.852,145.900 12.016 C 145.524 12.422,145.550 15.938,145.929 15.938 C 146.097 15.938,146.443 15.534,146.698 15.041 C 147.048 14.363,147.336 14.176,147.878 14.275 C 148.271 14.346,149.367 14.274,150.313 14.114 C 152.014 13.826,152.018 13.823,150.718 13.787 L 149.406 13.750 150.008 12.422 C 150.340 11.691,150.614 10.707,150.618 10.234 C 150.627 9.119,150.980 9.145,151.669 10.313 C 152.213 11.233,153.750 11.681,153.750 10.919 C 153.750 10.737,153.625 10.665,153.473 10.759 C 153.321 10.853,153.123 10.651,153.033 10.309 C 152.944 9.966,152.998 9.765,153.154 9.862 C 153.310 9.958,153.438 9.752,153.438 9.403 C 153.438 8.968,153.585 8.826,153.906 8.949 C 155.146 9.425,154.370 7.398,152.734 5.891 C 150.934 4.231,150.311 4.064,149.384 4.991 M188.579 5.202 C 188.157 5.657,187.817 6.254,187.822 6.530 C 187.831 6.969,187.883 6.964,188.245 6.487 C 188.637 5.972,188.685 5.973,189.173 6.512 C 190.253 7.705,189.692 9.062,188.118 9.063 C 187.372 9.063,187.257 9.317,187.481 10.469 L 187.663 11.406 188.421 10.182 C 189.269 8.810,189.197 8.739,190.110 11.862 C 190.480 13.125,190.515 13.625,190.248 13.790 C 190.043 13.916,190.397 14.109,191.063 14.234 C 192.011 14.411,192.210 14.568,192.087 15.039 C 192.003 15.361,192.061 15.703,192.217 15.799 C 192.373 15.896,192.500 16.247,192.500 16.581 C 192.500 17.194,192.954 17.405,193.248 16.928 C 193.533 16.467,194.163 12.374,194.111 11.318 C 194.057 10.203,192.574 7.013,191.356 5.391 C 190.431 4.159,189.598 4.102,188.579 5.202 M209.649 4.781 C 209.370 4.994,209.149 5.516,209.159 5.943 C 209.169 6.370,209.007 7.496,208.800 8.445 C 208.592 9.395,208.450 11.233,208.483 12.530 C 208.553 15.237,208.339 15.863,207.550 15.255 C 207.113 14.917,207.117 14.956,207.578 15.499 C 207.879 15.853,208.125 16.448,208.125 16.821 C 208.125 17.967,209.279 17.286,209.796 15.835 C 209.949 15.405,210.262 15.287,211.071 15.357 C 213.621 15.577,215.201 11.956,213.906 8.858 C 213.648 8.241,213.437 7.507,213.437 7.227 C 213.436 5.841,210.634 4.031,209.649 4.781 M270.028 5.586 C 267.401 9.275,266.890 11.647,267.816 15.859 C 268.312 18.114,268.820 17.964,269.189 15.452 C 269.248 15.048,269.681 14.734,270.495 14.506 C 271.175 14.315,271.512 14.098,271.259 14.013 C 270.870 13.884,270.881 13.630,271.341 12.208 C 271.635 11.298,271.875 10.288,271.875 9.964 C 271.875 9.044,272.271 9.266,273.196 10.705 L 274.049 12.031 273.990 10.593 C 273.941 9.414,273.836 9.180,273.404 9.293 C 272.490 9.532,271.596 8.833,271.690 7.952 C 271.774 7.166,272.813 5.787,272.813 6.462 C 272.813 6.652,273.023 6.889,273.281 6.988 C 273.983 7.257,273.848 6.727,272.941 5.649 C 271.906 4.419,270.875 4.396,270.028 5.586 M329.375 5.000 C 329.375 5.172,329.177 5.313,328.936 5.313 C 328.605 5.313,328.538 5.617,328.664 6.557 C 328.793 7.522,328.717 7.845,328.322 7.996 C 328.042 8.104,327.813 8.326,327.813 8.489 C 327.813 8.653,327.951 8.701,328.120 8.597 C 328.305 8.482,328.373 8.756,328.291 9.281 C 328.216 9.763,328.072 11.906,327.971 14.044 L 327.788 17.931 328.461 17.325 C 328.831 16.992,329.242 16.437,329.374 16.093 C 329.553 15.626,329.878 15.478,330.666 15.509 C 333.104 15.602,334.813 12.210,333.707 9.473 C 333.511 8.990,333.265 8.117,333.160 7.534 C 333.055 6.950,332.691 6.319,332.349 6.128 C 332.007 5.937,331.542 5.535,331.315 5.234 C 330.877 4.654,329.375 4.472,329.375 5.000 M87.499 7.578 C 85.245 10.160,84.688 11.078,84.688 12.208 C 84.688 13.078,85.217 12.952,85.759 11.953 L 86.225 11.094 86.237 11.938 C 86.301 16.193,93.531 16.716,94.546 12.539 C 94.872 11.197,94.875 11.195,95.242 12.002 C 95.967 13.591,96.622 12.582,95.974 10.877 C 95.822 10.477,95.133 9.519,94.443 8.747 C 93.754 7.975,92.738 6.816,92.187 6.172 C 90.677 4.405,90.125 4.571,87.499 7.578 M168.763 5.768 C 168.366 6.190,167.500 6.911,166.837 7.370 C 166.031 7.929,165.530 8.574,165.325 9.319 C 164.949 10.679,165.112 10.903,165.936 10.158 C 166.552 9.600,166.563 9.609,166.563 10.684 C 166.563 11.416,166.787 11.975,167.241 12.373 C 167.615 12.701,167.839 12.828,167.740 12.656 C 167.641 12.484,167.819 11.851,168.137 11.250 L 168.715 10.156 168.928 11.172 C 169.173 12.340,170.089 12.563,170.614 11.583 C 171.100 10.675,171.007 10.353,170.311 10.535 C 169.041 10.867,168.036 8.692,169.245 8.228 C 169.643 8.075,169.659 7.987,169.323 7.774 C 169.045 7.597,169.236 7.508,169.897 7.505 C 170.862 7.500,171.638 8.807,171.144 9.606 C 171.060 9.741,171.402 10.453,171.902 11.187 C 172.995 12.789,173.031 13.249,172.118 13.889 C 171.177 14.548,171.497 14.500,172.933 13.768 C 173.588 13.434,174.301 12.918,174.519 12.620 C 174.875 12.134,174.954 12.195,175.293 13.222 C 175.920 15.123,176.372 15.022,176.166 13.028 C 175.718 8.686,170.671 3.736,168.763 5.768 M249.310 5.547 C 249.083 5.848,248.618 6.250,248.276 6.440 C 247.934 6.631,247.570 7.262,247.465 7.847 C 247.360 8.429,247.114 9.302,246.918 9.786 C 245.812 12.523,247.521 15.915,249.959 15.821 C 250.747 15.791,251.072 15.938,251.251 16.406 C 251.383 16.750,251.794 17.304,252.164 17.638 L 252.837 18.244 252.654 14.356 C 252.553 12.218,252.409 10.075,252.334 9.594 C 252.252 9.068,252.320 8.795,252.505 8.909 C 252.674 9.014,252.813 8.966,252.813 8.802 C 252.813 8.638,252.583 8.416,252.303 8.309 C 251.908 8.157,251.832 7.835,251.961 6.869 C 252.087 5.930,252.020 5.625,251.689 5.625 C 251.448 5.625,251.250 5.484,251.250 5.313 C 251.250 4.785,249.748 4.966,249.310 5.547 M229.452 5.703 C 229.280 5.918,229.041 6.412,228.922 6.801 C 228.800 7.199,228.557 7.418,228.367 7.300 C 228.180 7.185,228.117 7.235,228.227 7.412 C 228.336 7.589,227.868 8.597,227.186 9.652 C 224.398 13.966,223.794 16.279,225.827 14.855 C 226.186 14.603,226.560 14.476,226.657 14.573 C 226.753 14.670,226.768 14.419,226.689 14.015 C 226.531 13.205,226.937 13.902,227.308 15.078 C 227.403 15.379,227.774 15.625,228.134 15.625 C 228.493 15.625,228.717 15.739,228.631 15.878 C 228.348 16.335,231.330 15.925,232.259 15.379 C 233.590 14.595,234.428 13.051,234.454 11.333 C 234.473 10.093,234.525 9.971,234.786 10.556 C 234.956 10.938,235.303 11.250,235.556 11.250 C 236.363 11.250,235.737 9.315,234.610 8.329 C 234.051 7.839,233.068 6.960,232.426 6.376 C 231.228 5.285,230.007 5.009,229.452 5.703 M287.039 7.266 C 284.697 9.864,283.832 11.385,283.572 13.359 C 283.310 15.355,283.855 15.609,284.412 13.750 C 284.855 12.271,284.757 12.304,285.811 13.281 C 286.834 14.230,287.184 14.273,286.962 13.422 C 286.863 13.044,287.034 12.501,287.382 12.094 C 288.262 11.062,288.793 10.010,288.595 9.689 C 288.148 8.965,288.819 7.813,289.688 7.813 C 290.564 7.813,290.938 8.278,290.938 9.370 C 290.938 9.682,291.259 10.632,291.652 11.480 L 292.366 13.022 292.902 12.311 C 293.196 11.921,293.438 11.214,293.438 10.741 C 293.438 9.922,293.459 9.909,293.881 10.487 C 294.124 10.820,294.419 10.998,294.535 10.881 C 294.974 10.443,294.292 8.731,293.409 8.051 C 292.904 7.662,291.981 6.887,291.358 6.328 C 289.713 4.853,289.092 4.988,287.039 7.266 M307.548 7.197 C 306.321 8.222,305.540 9.153,305.302 9.874 C 304.816 11.349,305.194 11.624,306.120 10.469 L 306.872 9.531 306.880 10.625 L 306.889 11.719 307.483 10.946 C 307.809 10.521,308.009 10.065,307.926 9.931 C 307.803 9.732,308.054 9.158,308.975 7.536 C 309.395 6.795,310.529 8.576,310.426 9.815 C 310.350 10.729,310.530 11.817,310.935 12.881 C 311.280 13.789,311.562 14.566,311.562 14.609 C 311.563 14.922,309.048 14.589,308.429 14.195 C 307.880 13.845,307.927 13.934,308.591 14.501 C 309.694 15.443,312.337 15.379,313.773 14.375 C 314.550 13.832,314.589 13.833,314.947 14.407 C 315.561 15.390,316.250 15.143,316.250 13.940 C 316.250 13.226,315.893 12.386,315.155 11.362 C 314.552 10.527,313.407 8.895,312.609 7.734 C 310.759 5.045,310.196 4.985,307.548 7.197 M30.000 7.698 C 30.000 8.705,29.581 9.063,28.402 9.063 C 27.478 9.063,27.363 8.264,28.114 7.049 C 28.956 5.687,30.000 6.047,30.000 7.698 M152.505 7.352 C 153.507 8.974,152.847 9.848,151.119 9.185 C 150.190 8.829,150.718 6.459,151.771 6.260 C 151.800 6.254,152.130 6.746,152.505 7.352 M8.812 10.403 C 8.948 11.306,9.929 11.858,10.317 11.250 C 10.890 10.350,10.664 9.845,9.671 9.810 C 8.885 9.782,8.735 9.886,8.812 10.403 M207.540 11.643 C 207.582 12.451,207.691 13.038,207.783 12.946 C 207.975 12.755,207.828 10.544,207.609 10.321 C 207.529 10.239,207.498 10.834,207.540 11.643 M290.313 10.628 C 290.055 10.790,289.598 10.847,289.297 10.753 C 288.652 10.552,288.633 10.651,289.113 11.704 C 289.580 12.730,290.551 12.746,290.806 11.732 C 291.072 10.671,290.890 10.264,290.313 10.628 M307.983 11.206 C 307.455 12.869,308.569 13.174,309.479 11.616 L 310.058 10.625 309.112 10.625 C 308.465 10.625,308.109 10.808,307.983 11.206 M187.500 12.397 C 187.500 12.917,188.596 13.752,189.243 13.725 C 189.686 13.707,189.720 13.656,189.375 13.529 C 189.117 13.435,188.590 13.070,188.203 12.718 C 187.816 12.366,187.500 12.222,187.500 12.397 M273.438 12.803 C 273.438 12.969,273.067 13.299,272.614 13.536 C 271.854 13.934,271.839 13.980,272.415 14.131 C 272.866 14.249,273.184 14.047,273.568 13.397 C 273.866 12.893,273.953 12.500,273.768 12.500 C 273.586 12.500,273.438 12.636,273.438 12.803 M9.201 14.033 C 9.297 14.189,9.657 14.243,10.000 14.153 C 10.860 13.928,10.783 13.750,9.825 13.750 C 9.385 13.750,9.104 13.877,9.201 14.033 M168.750 14.084 C 168.750 14.378,170.248 14.856,170.471 14.633 C 170.543 14.561,170.185 14.346,169.676 14.154 C 169.167 13.962,168.750 13.930,168.750 14.084 M290.313 14.375 C 289.443 14.851,289.353 14.976,289.873 14.987 C 290.234 14.994,290.783 14.719,291.094 14.375 C 291.783 13.613,291.704 13.613,290.313 14.375 M1.313 22.563 C 1.106 22.769,0.937 23.233,0.937 23.594 C 0.937 25.030,2.588 25.523,3.164 24.258 C 3.807 22.847,2.357 21.518,1.313 22.563 M23.438 22.500 C 23.438 22.672,23.578 22.813,23.750 22.813 C 23.922 22.813,24.063 23.164,24.063 23.594 C 24.063 24.023,23.922 24.375,23.750 24.375 C 23.578 24.375,23.438 24.516,23.438 24.688 C 23.438 24.859,23.804 25.000,24.252 25.000 C 24.867 25.000,25.020 24.879,24.877 24.506 C 24.773 24.234,24.688 23.601,24.688 23.099 C 24.688 22.396,24.545 22.188,24.063 22.188 C 23.719 22.188,23.438 22.328,23.438 22.500 M46.146 22.396 C 45.680 22.862,45.988 23.126,46.797 22.954 L 47.656 22.771 46.797 23.507 C 45.601 24.530,45.701 25.002,47.109 24.990 C 48.136 24.981,48.215 24.930,47.748 24.575 C 47.260 24.204,47.257 24.127,47.712 23.671 C 47.986 23.398,48.125 22.952,48.021 22.680 C 47.834 22.191,46.546 21.996,46.146 22.396 M68.605 22.482 C 68.384 22.840,68.564 22.909,69.531 22.840 C 70.121 22.797,70.124 22.815,69.588 23.144 C 69.038 23.481,69.038 23.508,69.588 23.944 C 70.129 24.372,70.125 24.390,69.501 24.306 C 69.141 24.258,68.789 24.359,68.720 24.531 C 68.650 24.703,69.059 24.888,69.628 24.943 L 70.663 25.042 70.566 23.693 C 70.468 22.330,69.188 21.539,68.605 22.482 M91.584 23.095 C 90.628 24.437,91.442 25.386,93.027 24.778 C 93.508 24.594,93.580 24.063,93.125 24.063 C 92.953 24.063,92.813 23.641,92.813 23.125 C 92.813 21.943,92.411 21.934,91.584 23.095 M102.500 22.631 C 102.500 22.874,102.406 23.319,102.291 23.618 C 102.122 24.059,102.212 24.129,102.759 23.986 C 103.132 23.888,103.516 23.936,103.612 24.092 C 103.708 24.248,103.419 24.375,102.969 24.375 C 102.503 24.375,102.234 24.510,102.344 24.688 C 102.450 24.859,102.950 25.000,103.456 25.000 C 104.628 25.000,104.780 23.728,103.672 23.194 L 102.969 22.855 103.672 22.834 C 104.737 22.802,104.514 22.188,103.438 22.188 C 102.837 22.188,102.500 22.347,102.500 22.631 M124.984 22.842 C 124.393 23.946,124.862 25.000,125.943 25.000 C 127.127 25.000,127.288 23.732,126.172 23.194 L 125.469 22.855 126.172 22.834 C 127.132 22.805,127.068 22.188,126.105 22.188 C 125.643 22.188,125.194 22.449,124.984 22.842 M147.188 22.500 C 147.188 22.672,147.472 22.813,147.821 22.813 C 148.421 22.813,148.429 22.860,147.977 23.734 C 147.418 24.815,147.393 25.000,147.806 25.000 C 148.074 25.000,149.375 22.807,149.375 22.356 C 149.375 22.263,148.883 22.188,148.281 22.188 C 147.680 22.188,147.188 22.328,147.188 22.500 M169.969 22.266 C 169.398 23.702,169.773 25.000,170.760 25.000 C 171.811 25.000,171.823 24.985,171.823 23.594 C 171.823 22.383,170.344 21.324,169.969 22.266 M192.332 22.849 C 192.175 23.344,192.275 23.666,192.678 23.961 C 192.989 24.189,193.077 24.375,192.872 24.375 C 192.668 24.375,192.500 24.525,192.500 24.708 C 192.500 24.892,192.887 24.997,193.359 24.943 C 194.649 24.794,194.673 22.396,193.386 22.247 C 192.753 22.174,192.501 22.318,192.332 22.849 M206.250 22.500 C 206.250 22.672,206.391 22.813,206.563 22.813 C 206.734 22.813,206.875 23.164,206.875 23.594 C 206.875 24.023,206.734 24.375,206.563 24.375 C 206.391 24.375,206.250 24.516,206.250 24.688 C 206.250 24.859,206.617 25.000,207.065 25.000 C 207.679 25.000,207.833 24.879,207.690 24.506 C 207.585 24.234,207.500 23.601,207.500 23.099 C 207.500 22.396,207.357 22.188,206.875 22.188 C 206.531 22.188,206.250 22.328,206.250 22.500 M208.201 22.549 C 207.235 23.515,208.072 25.139,209.436 24.946 C 210.564 24.786,210.508 22.385,209.373 22.252 C 208.942 22.202,208.415 22.335,208.201 22.549 M225.938 22.500 C 225.938 22.672,226.078 22.813,226.250 22.813 C 226.422 22.813,226.563 23.164,226.563 23.594 C 226.563 24.023,226.422 24.375,226.250 24.375 C 226.078 24.375,225.938 24.516,225.938 24.688 C 225.938 24.859,226.304 25.000,226.752 25.000 C 227.367 25.000,227.520 24.879,227.377 24.506 C 227.273 24.234,227.188 23.601,227.188 23.099 C 227.188 22.396,227.045 22.188,226.563 22.188 C 226.219 22.188,225.938 22.328,225.938 22.500 M227.969 23.594 C 227.969 24.844,228.047 25.000,228.672 25.000 C 229.059 25.000,229.375 24.859,229.375 24.688 C 229.375 24.516,229.234 24.375,229.063 24.375 C 228.891 24.375,228.750 23.883,228.750 23.281 C 228.750 22.615,228.597 22.188,228.359 22.188 C 228.105 22.188,227.969 22.677,227.969 23.594 M248.438 22.500 C 248.438 22.672,248.578 22.813,248.750 22.813 C 248.922 22.813,249.063 23.164,249.063 23.594 C 249.063 24.023,248.922 24.375,248.750 24.375 C 248.578 24.375,248.438 24.516,248.438 24.688 C 248.438 24.861,249.271 25.000,250.313 25.000 C 251.354 25.000,252.188 24.861,252.188 24.688 C 252.188 24.516,251.941 24.371,251.641 24.365 C 251.120 24.356,251.120 24.341,251.641 24.037 C 252.577 23.492,252.357 22.126,251.352 22.245 C 250.893 22.299,250.454 22.534,250.378 22.767 C 250.277 23.073,250.422 23.132,250.901 22.980 C 251.761 22.707,251.736 22.923,250.800 23.859 C 249.902 24.758,249.688 24.636,249.688 23.229 C 249.688 22.396,249.563 22.188,249.063 22.188 C 248.719 22.188,248.438 22.328,248.438 22.500 M270.938 22.500 C 270.938 22.672,271.078 22.813,271.250 22.813 C 271.422 22.813,271.563 23.164,271.563 23.594 C 271.563 24.023,271.422 24.375,271.250 24.375 C 271.078 24.375,270.938 24.516,270.938 24.688 C 270.938 24.859,271.304 25.000,271.752 25.000 C 272.367 25.000,272.520 24.879,272.377 24.506 C 272.273 24.234,272.188 23.601,272.188 23.099 C 272.188 22.396,272.045 22.188,271.563 22.188 C 271.219 22.188,270.938 22.328,270.938 22.500 M272.813 22.500 C 272.813 22.672,273.129 22.817,273.516 22.822 C 274.165 22.832,274.177 22.864,273.675 23.245 C 273.168 23.630,273.178 23.682,273.832 24.022 C 274.508 24.375,274.502 24.383,273.672 24.268 C 273.097 24.189,272.813 24.290,272.813 24.575 C 272.813 25.043,274.538 25.182,274.814 24.736 C 275.332 23.898,274.591 22.188,273.709 22.188 C 273.216 22.188,272.813 22.328,272.813 22.500 M282.188 22.500 C 282.188 22.672,282.328 22.813,282.500 22.813 C 282.672 22.813,282.813 23.164,282.813 23.594 C 282.813 24.023,282.672 24.375,282.500 24.375 C 282.328 24.375,282.188 24.516,282.188 24.688 C 282.188 24.859,282.554 25.000,283.002 25.000 C 283.617 25.000,283.770 24.879,283.627 24.506 C 283.523 24.234,283.438 23.601,283.438 23.099 C 283.438 22.396,283.295 22.188,282.813 22.188 C 282.469 22.188,282.188 22.328,282.188 22.500 M284.419 23.201 C 284.066 23.759,283.877 24.312,283.998 24.430 C 284.421 24.842,286.095 24.860,286.063 24.453 C 286.045 24.238,286.010 23.641,285.984 23.125 C 285.922 21.882,285.234 21.916,284.419 23.201 M304.688 22.500 C 304.688 22.672,304.828 22.813,305.000 22.813 C 305.172 22.813,305.313 23.164,305.313 23.594 C 305.313 24.023,305.172 24.375,305.000 24.375 C 304.828 24.375,304.688 24.516,304.688 24.688 C 304.688 24.859,305.054 25.000,305.502 25.000 C 306.117 25.000,306.270 24.879,306.127 24.506 C 306.023 24.234,305.938 23.601,305.938 23.099 C 305.938 22.396,305.795 22.188,305.313 22.188 C 304.969 22.188,304.688 22.328,304.688 22.500 M306.752 22.682 C 306.376 23.663,306.537 24.142,307.187 23.972 C 307.531 23.882,307.891 23.936,307.987 24.092 C 308.083 24.248,307.802 24.375,307.362 24.375 C 306.922 24.375,306.563 24.516,306.563 24.688 C 306.563 25.227,308.439 25.047,308.654 24.486 C 308.864 23.939,307.925 23.018,307.454 23.310 C 307.307 23.400,307.188 23.325,307.188 23.143 C 307.188 22.961,307.469 22.813,307.813 22.813 C 308.156 22.813,308.438 22.672,308.438 22.500 C 308.438 21.987,306.958 22.147,306.752 22.682 M327.188 22.500 C 327.188 22.672,327.328 22.813,327.500 22.813 C 327.672 22.813,327.813 23.164,327.813 23.594 C 327.813 24.023,327.672 24.375,327.500 24.375 C 327.328 24.375,327.188 24.516,327.188 24.688 C 327.188 24.859,327.554 25.000,328.002 25.000 C 328.617 25.000,328.770 24.879,328.627 24.506 C 328.523 24.234,328.438 23.601,328.438 23.099 C 328.438 22.396,328.295 22.188,327.813 22.188 C 327.469 22.188,327.188 22.328,327.188 22.500 M329.186 22.630 C 328.767 23.721,329.200 24.842,330.080 24.943 C 331.166 25.068,331.623 24.171,330.786 23.559 C 330.475 23.331,330.101 23.219,329.954 23.310 C 329.807 23.400,329.688 23.325,329.688 23.143 C 329.688 22.961,329.969 22.813,330.313 22.813 C 330.656 22.813,330.938 22.672,330.938 22.500 C 330.938 22.016,329.377 22.131,329.186 22.630 M2.594 23.231 C 2.853 23.907,2.261 24.645,1.904 24.091 C 1.601 23.620,1.780 22.813,2.188 22.813 C 2.323 22.813,2.505 23.001,2.594 23.231 M209.688 23.594 C 209.688 24.059,209.509 24.375,209.245 24.375 C 208.744 24.375,208.458 23.788,208.673 23.203 C 208.935 22.492,209.688 22.782,209.688 23.594 " stroke="none" fill="#000000" fill-rule="evenodd"></path></g></svg>